<svg id="svg" version="1.1" width="400" height="400" viewBox="0 0 400 400" xmlns="http://www.w3.org/2000/svg" xmlns:xlink="http://www.w3.org/1999/xlink" ><g id="svgg"><path id="path0" d="M0.000 200.000 L 0.000 400.000 200.000 400.000 L 400.000 400.000 400.000 200.000 L 400.000 0.000 200.000 0.000 L 0.000 0.000 0.000 200.000 M207.465 15.000 C 209.189 15.330,211.230 15.604,212.000 15.609 C 212.770 15.614,214.167 15.966,215.106 16.392 C 216.044 16.817,217.484 17.285,218.306 17.432 C 219.127 17.578,220.361 18.035,221.047 18.449 C 221.733 18.862,222.564 19.200,222.893 19.200 C 223.223 19.200,223.921 19.535,224.446 19.945 C 224.971 20.355,225.850 20.828,226.400 20.996 C 226.950 21.164,227.670 21.558,228.000 21.873 C 228.330 22.187,229.582 23.063,230.783 23.819 C 231.983 24.576,233.117 25.466,233.303 25.798 C 233.488 26.129,233.813 26.400,234.024 26.400 C 234.685 26.400,236.482 28.179,307.752 99.400 C 371.675 163.279,379.734 171.444,380.981 173.595 C 381.212 173.992,382.075 175.299,382.900 176.500 C 383.725 177.700,384.400 178.867,384.400 179.092 C 384.400 179.318,384.669 179.725,384.997 179.998 C 385.326 180.270,385.792 181.237,386.034 182.147 C 386.276 183.056,386.714 184.070,387.006 184.400 C 387.298 184.730,387.657 185.540,387.802 186.200 C 387.947 186.860,388.411 188.243,388.833 189.274 C 389.255 190.305,389.602 191.565,389.605 192.074 C 389.607 192.583,389.965 194.440,390.400 196.200 C 391.380 200.167,391.513 209.412,390.639 212.816 C 390.331 214.017,389.895 216.199,389.671 217.665 C 389.447 219.131,389.000 220.751,388.677 221.265 C 388.354 221.779,387.964 222.920,387.811 223.800 C 387.658 224.680,387.300 225.670,387.017 226.000 C 386.733 226.330,386.289 227.261,386.030 228.068 C 385.771 228.875,385.298 229.752,384.980 230.017 C 384.661 230.282,384.397 230.791,384.394 231.149 C 384.391 231.507,383.755 232.700,382.981 233.800 C 382.208 234.900,381.153 236.430,380.638 237.200 C 380.123 237.970,379.094 239.249,378.351 240.041 C 377.608 240.834,376.444 242.094,375.764 242.841 C 372.564 246.360,364.252 252.800,362.909 252.800 C 362.689 252.800,362.064 253.149,361.522 253.575 C 360.980 254.002,360.056 254.471,359.467 254.619 C 358.879 254.766,357.730 255.228,356.914 255.644 C 356.098 256.060,355.100 256.400,354.696 256.400 C 354.291 256.400,353.406 256.687,352.728 257.037 C 351.552 257.645,347.114 258.421,340.223 259.224 C 338.476 259.427,336.907 259.733,336.736 259.904 C 336.565 260.075,336.375 278.661,336.313 301.207 C 336.211 338.145,336.135 342.342,335.546 343.639 C 335.186 344.430,334.764 346.050,334.608 347.239 C 334.452 348.428,334.086 349.776,333.795 350.236 C 333.503 350.696,333.054 351.866,332.795 352.836 C 332.537 353.806,332.094 354.870,331.810 355.200 C 331.527 355.530,331.159 356.250,330.992 356.800 C 330.826 357.350,330.355 358.229,329.945 358.754 C 329.535 359.279,329.200 359.880,329.200 360.091 C 329.200 360.301,328.830 360.952,328.379 361.537 C 327.927 362.122,327.025 363.320,326.374 364.200 C 325.723 365.080,324.518 366.597,323.695 367.571 C 322.269 369.261,321.710 369.812,317.867 373.323 C 315.950 375.075,309.951 379.200,309.321 379.200 C 309.088 379.200,308.675 379.469,308.402 379.797 C 308.130 380.126,307.163 380.592,306.253 380.834 C 305.344 381.076,304.330 381.502,304.000 381.780 C 303.670 382.058,302.680 382.478,301.800 382.714 C 300.920 382.950,299.480 383.418,298.600 383.754 C 297.720 384.090,296.370 384.376,295.600 384.390 C 294.830 384.404,292.760 384.676,291.000 384.994 C 286.015 385.895,114.241 385.884,108.282 384.983 C 101.764 383.997,98.411 383.102,95.521 381.579 C 94.707 381.151,93.786 380.800,93.475 380.800 C 93.163 380.800,92.479 380.465,91.954 380.055 C 91.429 379.645,90.550 379.172,90.000 379.004 C 89.450 378.836,88.730 378.442,88.400 378.127 C 88.070 377.813,86.818 376.937,85.617 376.181 C 84.417 375.424,83.283 374.534,83.097 374.202 C 82.912 373.871,82.566 373.600,82.328 373.600 C 81.772 373.600,74.400 366.217,74.400 365.660 C 74.400 365.429,74.133 365.090,73.806 364.907 C 73.184 364.559,70.800 361.016,70.800 360.440 C 70.800 360.257,70.465 359.679,70.055 359.154 C 69.645 358.629,69.174 357.750,69.008 357.200 C 68.841 356.650,68.473 355.930,68.190 355.600 C 67.906 355.270,67.460 354.190,67.198 353.200 C 66.936 352.210,66.531 351.168,66.298 350.883 C 66.065 350.599,65.655 349.159,65.387 347.683 C 65.119 346.208,64.607 343.927,64.250 342.616 C 63.670 340.490,63.600 335.903,63.600 300.307 L 63.600 260.383 62.700 260.032 C 62.205 259.839,60.270 259.484,58.400 259.243 C 52.248 258.451,48.094 257.669,46.938 257.086 C 46.312 256.771,45.103 256.405,44.250 256.274 C 43.398 256.142,42.408 255.771,42.050 255.448 C 41.693 255.126,40.860 254.731,40.200 254.570 C 39.540 254.409,38.571 253.945,38.046 253.539 C 37.521 253.133,36.845 252.800,36.542 252.800 C 36.240 252.800,35.684 252.440,35.307 252.000 C 34.930 251.560,34.417 251.200,34.166 251.200 C 33.915 251.200,33.010 250.657,32.155 249.994 C 31.300 249.330,30.180 248.475,29.667 248.094 C 26.049 245.404,18.582 237.440,17.203 234.800 C 16.915 234.250,16.547 233.710,16.385 233.600 C 16.223 233.490,15.803 232.770,15.453 232.000 C 15.103 231.230,14.653 230.330,14.453 230.000 C 13.651 228.677,12.000 224.957,12.000 224.474 C 12.000 224.192,11.718 223.416,11.374 222.750 C 11.030 222.084,10.502 220.248,10.202 218.670 C 9.902 217.091,9.426 214.990,9.146 214.000 C 8.351 211.197,8.459 197.520,9.294 195.200 C 9.650 194.210,10.068 192.500,10.223 191.400 C 10.378 190.300,10.841 188.732,11.253 187.916 C 11.664 187.100,12.002 186.200,12.004 185.916 C 12.006 185.632,12.450 184.500,12.991 183.400 C 13.532 182.300,13.981 181.203,13.987 180.962 C 13.994 180.721,14.360 180.198,14.800 179.800 C 15.240 179.402,15.600 178.865,15.600 178.607 C 15.600 177.997,18.015 174.295,18.685 173.880 C 18.968 173.704,19.200 173.364,19.200 173.123 C 19.200 172.883,20.041 171.677,21.070 170.443 C 23.532 167.489,161.551 29.415,163.856 27.600 C 164.833 26.830,165.944 25.930,166.323 25.600 C 166.703 25.270,167.460 24.691,168.007 24.313 C 168.553 23.935,169.744 23.099,170.653 22.455 C 171.561 21.811,172.731 21.150,173.253 20.987 C 173.774 20.824,174.629 20.355,175.154 19.945 C 175.679 19.535,176.404 19.200,176.765 19.200 C 177.126 19.200,177.835 18.911,178.340 18.557 C 178.844 18.204,180.189 17.679,181.329 17.390 C 182.468 17.102,184.120 16.589,185.000 16.250 C 185.880 15.912,187.230 15.613,188.000 15.586 C 188.770 15.559,190.660 15.298,192.200 15.007 C 196.062 14.276,203.662 14.272,207.465 15.000 M196.183 260.764 C 195.734 260.956,194.048 261.317,192.435 261.567 C 190.823 261.818,189.125 262.287,188.663 262.611 C 188.200 262.935,187.547 263.201,187.211 263.202 C 183.970 263.209,173.744 271.534,172.640 275.063 C 172.491 275.538,172.106 276.027,171.785 276.150 C 171.463 276.274,171.200 276.678,171.200 277.049 C 171.200 277.420,170.705 278.730,170.100 279.961 L 169.000 282.200 169.000 305.400 C 169.000 328.341,169.010 328.620,169.863 330.400 C 170.338 331.390,170.857 332.650,171.018 333.200 C 171.179 333.750,171.645 334.629,172.055 335.154 C 172.465 335.679,172.800 336.283,172.800 336.498 C 172.800 337.038,175.788 340.272,178.622 342.800 C 187.360 350.592,202.307 352.610,213.800 347.549 C 214.240 347.356,215.500 346.658,216.600 346.000 C 217.700 345.342,218.837 344.689,219.126 344.549 C 219.921 344.165,222.813 341.578,224.185 340.025 C 224.853 339.269,225.805 338.258,226.300 337.779 C 226.795 337.300,227.200 336.728,227.200 336.508 C 227.200 336.288,227.549 335.664,227.975 335.122 C 228.402 334.580,228.873 333.611,229.023 332.968 C 229.173 332.326,229.558 331.380,229.879 330.866 C 231.590 328.129,231.805 284.352,230.125 280.800 C 229.657 279.810,229.143 278.550,228.982 278.000 C 228.821 277.450,228.355 276.571,227.945 276.046 C 227.535 275.521,227.200 274.851,227.200 274.557 C 227.200 273.819,220.121 266.800,219.377 266.800 C 219.046 266.800,218.669 266.523,218.539 266.185 C 218.409 265.847,217.740 265.311,217.051 264.993 C 216.363 264.676,215.530 264.245,215.200 264.036 C 211.233 261.525,199.235 259.461,196.183 260.764 " stroke="none" fill="#fbfbfb" fill-rule="evenodd"></path><path id="path1" d="M193.085 16.383 C 188.613 16.537,186.679 16.748,186.457 17.107 C 186.083 17.713,183.856 18.400,182.266 18.400 C 181.639 18.400,180.669 18.760,180.109 19.200 C 179.550 19.640,178.587 20.000,177.969 20.000 C 177.300 20.000,176.619 20.323,176.287 20.797 C 175.980 21.236,175.115 21.715,174.364 21.863 C 173.614 22.011,172.765 22.462,172.477 22.866 C 172.190 23.270,171.723 23.600,171.439 23.600 C 171.156 23.600,170.598 23.960,170.200 24.400 C 169.802 24.840,169.269 25.200,169.016 25.200 C 167.841 25.200,20.000 172.737,20.000 173.910 C 20.000 174.111,19.640 174.602,19.200 175.000 C 18.760 175.398,18.400 175.957,18.400 176.241 C 18.400 176.526,17.950 177.244,17.400 177.838 C 16.850 178.431,16.400 179.252,16.400 179.662 C 16.400 180.072,16.040 180.716,15.600 181.093 C 15.160 181.470,14.800 182.164,14.800 182.635 C 14.800 183.106,14.422 183.973,13.960 184.560 C 13.498 185.147,13.024 186.386,12.907 187.314 C 12.791 188.241,12.407 189.330,12.055 189.733 C 11.638 190.212,11.325 191.634,11.154 193.833 C 10.997 195.858,10.635 197.592,10.246 198.185 C 9.301 199.628,9.304 209.977,10.251 211.421 C 10.683 212.081,10.968 213.653,11.099 216.107 C 11.245 218.841,11.478 220.008,11.996 220.600 C 12.380 221.040,12.804 222.251,12.938 223.291 C 13.080 224.392,13.520 225.520,13.991 225.991 C 14.436 226.436,14.800 227.222,14.800 227.738 C 14.800 228.254,15.160 229.002,15.600 229.400 C 16.040 229.798,16.400 230.514,16.400 230.990 C 16.400 231.466,16.850 232.247,17.400 232.725 C 17.950 233.203,18.400 233.838,18.400 234.135 C 18.400 234.433,18.760 235.002,19.200 235.400 C 19.640 235.798,20.000 236.444,20.000 236.835 C 20.000 237.226,20.360 237.660,20.800 237.800 C 21.240 237.940,21.600 238.213,21.600 238.408 C 21.600 238.602,23.445 240.561,25.700 242.761 C 31.048 247.979,31.068 247.996,32.432 248.471 C 33.074 248.695,33.600 249.010,33.600 249.172 C 33.600 249.615,37.422 252.000,38.133 252.000 C 38.475 252.000,38.990 252.331,39.277 252.735 C 39.565 253.140,40.497 253.582,41.350 253.718 C 42.202 253.854,43.221 254.257,43.614 254.613 C 44.007 254.968,45.332 255.395,46.558 255.562 C 47.784 255.728,49.105 256.142,49.494 256.481 C 50.020 256.941,51.628 257.168,55.800 257.371 C 59.792 257.565,61.802 257.838,62.800 258.322 L 64.200 259.000 64.400 299.400 C 64.586 337.001,64.648 339.871,65.299 340.828 C 65.737 341.473,66.096 343.040,66.259 345.028 C 66.438 347.189,66.757 348.504,67.260 349.154 C 67.676 349.689,68.000 350.759,68.000 351.592 C 68.000 352.554,68.274 353.324,68.777 353.779 C 69.205 354.166,69.678 355.049,69.829 355.741 C 69.981 356.434,70.441 357.429,70.852 357.954 C 71.263 358.479,71.600 359.237,71.600 359.640 C 71.600 360.042,71.958 360.563,72.395 360.797 C 72.833 361.032,73.312 361.713,73.460 362.312 C 73.608 362.910,74.060 363.635,74.465 363.923 C 74.869 364.210,75.200 364.604,75.200 364.797 C 75.200 365.277,82.588 372.633,83.372 372.934 C 83.717 373.066,84.000 373.362,84.000 373.591 C 84.000 373.819,84.720 374.295,85.600 374.647 C 86.480 374.999,87.200 375.452,87.200 375.653 C 87.200 375.855,87.655 376.193,88.210 376.404 C 88.766 376.615,89.325 377.061,89.453 377.394 C 89.581 377.727,90.125 378.000,90.662 378.000 C 91.199 378.000,92.055 378.450,92.565 379.000 C 93.157 379.639,93.926 380.000,94.692 380.000 C 95.352 380.000,96.350 380.360,96.909 380.800 C 97.469 381.240,98.349 381.600,98.866 381.600 C 100.262 381.600,102.501 382.317,102.845 382.873 C 103.417 383.798,115.862 383.934,200.200 383.936 C 287.883 383.937,296.225 383.832,297.352 382.705 C 297.714 382.343,298.862 381.922,299.905 381.768 C 300.947 381.614,302.229 381.153,302.754 380.744 C 303.279 380.335,304.287 380.000,304.996 380.000 C 305.815 380.000,306.676 379.636,307.362 379.000 C 307.956 378.450,308.798 378.000,309.233 378.000 C 309.669 378.000,310.124 377.743,310.245 377.428 C 310.365 377.113,310.990 376.673,311.632 376.449 C 312.274 376.225,312.800 375.843,312.800 375.600 C 312.800 375.358,313.399 374.909,314.132 374.603 C 314.864 374.297,315.696 373.766,315.981 373.423 C 316.265 373.080,316.734 372.800,317.022 372.800 C 317.310 372.800,317.654 372.459,317.786 372.043 C 317.918 371.627,318.381 371.194,318.813 371.081 C 319.246 370.967,319.600 370.600,319.600 370.264 C 319.600 369.929,319.951 369.543,320.380 369.406 C 320.808 369.270,321.270 368.808,321.406 368.380 C 321.543 367.951,321.883 367.600,322.163 367.600 C 322.443 367.600,322.877 367.150,323.127 366.600 C 323.378 366.050,323.749 365.600,323.952 365.600 C 324.155 365.600,324.522 365.105,324.766 364.500 C 325.327 363.110,327.075 360.702,327.827 360.281 C 328.142 360.105,328.400 359.526,328.400 358.996 C 328.400 358.465,328.735 357.709,329.144 357.316 C 329.553 356.922,330.017 356.060,330.176 355.400 C 330.335 354.740,330.810 353.878,331.232 353.484 C 331.731 353.020,332.000 352.232,332.000 351.238 C 332.000 350.360,332.315 349.301,332.740 348.754 C 333.243 348.104,333.562 346.789,333.741 344.628 C 333.884 342.884,334.271 341.045,334.601 340.542 C 335.123 339.746,335.200 334.543,335.200 300.175 C 335.200 265.075,335.270 260.574,335.831 259.391 C 336.644 257.677,336.520 257.711,343.243 257.370 C 347.748 257.141,349.240 256.920,350.190 256.341 C 350.856 255.935,352.152 255.602,353.071 255.601 C 354.020 255.601,355.002 255.341,355.341 255.002 C 356.085 254.258,357.769 253.600,358.930 253.600 C 359.413 253.600,360.032 253.240,360.307 252.800 C 360.582 252.360,361.130 252.000,361.526 252.000 C 361.921 252.000,362.855 251.550,363.600 251.000 C 364.345 250.450,365.147 250.000,365.381 250.000 C 365.616 250.000,366.032 249.640,366.307 249.200 C 366.582 248.760,367.047 248.400,367.341 248.400 C 367.635 248.400,368.187 248.056,368.567 247.636 C 368.948 247.216,369.674 246.768,370.182 246.640 C 370.689 246.513,371.199 246.047,371.315 245.604 C 371.430 245.162,371.800 244.800,372.136 244.800 C 372.471 244.800,372.860 244.440,373.000 244.000 C 373.140 243.560,373.500 243.200,373.800 243.200 C 374.100 243.200,374.457 242.849,374.594 242.420 C 374.730 241.992,375.172 241.536,375.577 241.407 C 375.982 241.279,376.406 240.819,376.519 240.387 C 376.633 239.954,377.012 239.600,377.363 239.600 C 377.713 239.600,378.000 239.394,378.000 239.141 C 378.000 238.889,378.675 237.705,379.500 236.510 C 381.227 234.008,382.571 231.833,383.276 230.400 C 383.547 229.850,384.090 228.971,384.484 228.446 C 384.878 227.921,385.200 227.091,385.200 226.600 C 385.200 226.109,385.561 225.248,386.003 224.687 C 386.445 224.125,386.924 222.796,387.069 221.733 C 387.213 220.670,387.644 219.350,388.026 218.800 C 388.526 218.079,388.782 216.663,388.941 213.732 C 389.064 211.473,389.438 209.005,389.781 208.183 C 390.569 206.298,390.572 203.708,389.788 201.834 C 389.452 201.028,389.069 198.621,388.937 196.485 C 388.777 193.880,388.468 192.204,388.001 191.400 C 387.617 190.740,387.191 189.330,387.055 188.267 C 386.918 187.204,386.445 185.875,386.003 185.313 C 385.561 184.752,385.200 183.783,385.200 183.160 C 385.200 182.464,384.912 181.874,384.453 181.628 C 384.042 181.408,383.598 180.688,383.465 180.027 C 383.333 179.366,382.945 178.504,382.602 178.113 C 380.387 175.577,380.000 174.981,380.000 174.104 C 380.000 173.462,379.725 173.053,379.200 172.916 C 378.760 172.801,378.400 172.509,378.400 172.267 C 378.400 171.737,233.745 27.200,233.216 27.200 C 233.012 27.200,232.610 26.876,232.323 26.480 C 232.035 26.084,231.215 25.522,230.500 25.231 C 229.785 24.941,229.200 24.540,229.200 24.342 C 229.200 24.143,228.745 23.807,228.190 23.596 C 227.634 23.385,227.075 22.939,226.947 22.606 C 226.819 22.273,226.319 22.000,225.835 22.000 C 225.351 22.000,224.345 21.550,223.600 21.000 C 222.855 20.450,221.812 20.000,221.284 20.000 C 220.756 20.000,219.846 19.666,219.262 19.258 C 218.678 18.850,217.313 18.400,216.229 18.256 C 215.145 18.113,213.953 17.719,213.579 17.381 C 212.451 16.360,204.721 15.984,193.085 16.383 M207.800 260.000 C 208.334 260.590,209.032 260.800,210.462 260.800 C 211.848 260.800,212.621 261.021,213.178 261.578 C 213.605 262.005,214.600 262.476,215.389 262.624 C 216.177 262.772,217.003 263.232,217.225 263.647 C 217.447 264.061,217.864 264.400,218.152 264.400 C 218.440 264.400,219.002 264.760,219.400 265.200 C 219.798 265.640,220.358 266.000,220.645 266.000 C 221.528 266.000,228.000 272.751,228.000 273.671 C 228.000 274.132,228.450 274.925,229.000 275.435 C 229.550 275.945,230.000 276.780,230.000 277.292 C 230.000 277.804,230.360 278.530,230.800 278.907 C 231.423 279.441,231.604 280.101,231.618 281.896 C 231.627 283.163,231.895 284.920,232.212 285.800 C 233.075 288.196,233.053 324.232,232.187 325.376 C 231.805 325.882,231.600 327.099,231.600 328.861 C 231.600 330.975,231.437 331.726,230.858 332.284 C 230.449 332.678,229.998 333.614,229.855 334.364 C 229.711 335.115,229.236 335.980,228.797 336.287 C 228.359 336.594,228.000 337.026,228.000 337.246 C 228.000 338.313,223.701 342.893,221.003 344.699 C 220.121 345.289,219.078 346.094,218.684 346.486 C 218.291 346.879,217.532 347.200,216.998 347.200 C 216.461 347.200,215.850 347.533,215.629 347.945 C 215.405 348.364,214.609 348.791,213.809 348.921 C 213.027 349.048,211.916 349.523,211.340 349.976 C 210.606 350.553,209.706 350.800,208.333 350.800 C 207.256 350.800,205.705 351.095,204.887 351.457 C 203.033 352.275,197.048 352.375,195.621 351.611 C 195.086 351.325,193.414 350.955,191.904 350.790 C 190.330 350.617,188.859 350.216,188.454 349.849 C 188.065 349.497,187.129 349.089,186.374 348.943 C 185.618 348.796,184.571 348.344,184.046 347.938 C 183.521 347.532,182.808 347.200,182.460 347.200 C 182.113 347.200,181.462 346.844,181.014 346.408 C 179.518 344.952,177.886 343.600,177.625 343.600 C 176.893 343.600,172.000 338.073,172.000 337.246 C 172.000 337.026,171.641 336.594,171.203 336.287 C 170.764 335.980,170.286 335.132,170.140 334.402 C 169.994 333.672,169.543 332.743,169.138 332.338 C 168.646 331.846,168.400 331.017,168.400 329.851 C 168.400 328.889,168.035 327.277,167.589 326.268 C 166.425 323.636,166.525 285.808,167.700 284.510 C 168.177 283.984,168.400 283.077,168.400 281.669 C 168.400 280.133,168.606 279.394,169.200 278.800 C 169.640 278.360,170.000 277.654,170.000 277.231 C 170.000 276.808,170.450 275.927,171.000 275.273 C 171.550 274.619,172.000 273.810,172.000 273.474 C 172.000 273.138,172.810 272.053,173.800 271.063 C 174.790 270.073,175.600 269.063,175.600 268.819 C 175.600 268.575,175.888 268.264,176.240 268.129 C 176.592 267.994,177.289 267.505,177.788 267.042 C 179.829 265.151,180.904 264.400,181.572 264.400 C 181.959 264.400,182.599 264.044,182.993 263.608 C 183.387 263.172,184.360 262.694,185.155 262.545 C 185.950 262.397,186.785 262.023,187.011 261.715 C 187.237 261.407,188.407 261.018,189.611 260.851 C 190.815 260.684,192.340 260.251,193.000 259.890 C 194.971 258.809,206.802 258.898,207.800 260.000 " stroke="none" fill="#1c95e0" fill-rule="evenodd"></path><path id="path2" d="M192.200 15.007 C 190.660 15.298,188.770 15.559,188.000 15.586 C 187.230 15.613,185.880 15.912,185.000 16.250 C 184.120 16.589,182.468 17.102,181.329 17.390 C 180.189 17.679,178.844 18.204,178.340 18.557 C 177.835 18.911,177.126 19.200,176.765 19.200 C 176.404 19.200,175.679 19.535,175.154 19.945 C 174.629 20.355,173.774 20.824,173.253 20.987 C 172.731 21.150,171.561 21.811,170.653 22.455 C 169.744 23.099,168.553 23.935,168.007 24.313 C 167.460 24.691,166.703 25.270,166.323 25.600 C 165.944 25.930,164.833 26.830,163.856 27.600 C 161.551 29.415,23.532 167.489,21.070 170.443 C 20.041 171.677,19.200 172.883,19.200 173.123 C 19.200 173.364,18.968 173.704,18.685 173.880 C 18.015 174.295,15.600 177.997,15.600 178.607 C 15.600 178.865,15.240 179.402,14.800 179.800 C 14.360 180.198,13.994 180.721,13.987 180.962 C 13.981 181.203,13.532 182.300,12.991 183.400 C 12.450 184.500,12.006 185.632,12.004 185.916 C 12.002 186.200,11.664 187.100,11.253 187.916 C 10.841 188.732,10.378 190.300,10.223 191.400 C 10.068 192.500,9.650 194.210,9.294 195.200 C 8.459 197.520,8.351 211.197,9.146 214.000 C 9.426 214.990,9.902 217.091,10.202 218.670 C 10.502 220.248,11.030 222.084,11.374 222.750 C 11.718 223.416,12.000 224.192,12.000 224.474 C 12.000 224.957,13.651 228.677,14.453 230.000 C 14.653 230.330,15.103 231.230,15.453 232.000 C 15.803 232.770,16.223 233.490,16.385 233.600 C 16.547 233.710,16.915 234.250,17.203 234.800 C 18.582 237.440,26.049 245.404,29.667 248.094 C 30.180 248.475,31.300 249.330,32.155 249.994 C 33.010 250.657,33.915 251.200,34.166 251.200 C 34.417 251.200,34.930 251.560,35.307 252.000 C 35.684 252.440,36.240 252.800,36.542 252.800 C 36.845 252.800,37.521 253.133,38.046 253.539 C 38.571 253.945,39.540 254.409,40.200 254.570 C 40.860 254.731,41.693 255.126,42.050 255.448 C 42.408 255.771,43.398 256.142,44.250 256.274 C 45.103 256.405,46.312 256.771,46.938 257.086 C 48.094 257.669,52.248 258.451,58.400 259.243 C 60.270 259.484,62.205 259.839,62.700 260.032 L 63.600 260.383 63.600 300.307 C 63.600 335.903,63.670 340.490,64.250 342.616 C 64.607 343.927,65.119 346.208,65.387 347.683 C 65.655 349.159,66.065 350.599,66.298 350.883 C 66.531 351.168,66.936 352.210,67.198 353.200 C 67.460 354.190,67.906 355.270,68.190 355.600 C 68.473 355.930,68.841 356.650,69.008 357.200 C 69.174 357.750,69.645 358.629,70.055 359.154 C 70.465 359.679,70.800 360.257,70.800 360.440 C 70.800 361.016,73.184 364.559,73.806 364.907 C 74.133 365.090,74.400 365.429,74.400 365.660 C 74.400 366.217,81.772 373.600,82.328 373.600 C 82.566 373.600,82.912 373.871,83.097 374.202 C 83.283 374.534,84.417 375.424,85.617 376.181 C 86.818 376.937,88.070 377.813,88.400 378.127 C 88.730 378.442,89.450 378.836,90.000 379.004 C 90.550 379.172,91.429 379.645,91.954 380.055 C 92.479 380.465,93.163 380.800,93.475 380.800 C 93.786 380.800,94.707 381.151,95.521 381.579 C 98.411 383.102,101.764 383.997,108.282 384.983 C 114.241 385.884,286.015 385.895,291.000 384.994 C 292.760 384.676,294.830 384.404,295.600 384.390 C 296.370 384.376,297.720 384.090,298.600 383.754 C 299.480 383.418,300.920 382.950,301.800 382.714 C 302.680 382.478,303.670 382.058,304.000 381.780 C 304.330 381.502,305.344 381.076,306.253 380.834 C 307.163 380.592,308.130 380.126,308.402 379.797 C 308.675 379.469,309.088 379.200,309.321 379.200 C 309.951 379.200,315.950 375.075,317.867 373.323 C 321.710 369.812,322.269 369.261,323.695 367.571 C 324.518 366.597,325.723 365.080,326.374 364.200 C 327.025 363.320,327.927 362.122,328.379 361.537 C 328.830 360.952,329.200 360.301,329.200 360.091 C 329.200 359.880,329.535 359.279,329.945 358.754 C 330.355 358.229,330.826 357.350,330.992 356.800 C 331.159 356.250,331.527 355.530,331.810 355.200 C 332.094 354.870,332.537 353.806,332.795 352.836 C 333.054 351.866,333.503 350.696,333.795 350.236 C 334.086 349.776,334.452 348.428,334.608 347.239 C 334.764 346.050,335.186 344.430,335.546 343.639 C 336.135 342.342,336.211 338.145,336.313 301.207 C 336.375 278.661,336.565 260.075,336.736 259.904 C 336.907 259.733,338.476 259.427,340.223 259.224 C 347.114 258.421,351.552 257.645,352.728 257.037 C 353.406 256.687,354.291 256.400,354.696 256.400 C 355.100 256.400,356.098 256.060,356.914 255.644 C 357.730 255.228,358.879 254.766,359.467 254.619 C 360.056 254.471,360.980 254.002,361.522 253.575 C 362.064 253.149,362.689 252.800,362.909 252.800 C 364.252 252.800,372.564 246.360,375.764 242.841 C 376.444 242.094,377.608 240.834,378.351 240.041 C 379.094 239.249,380.123 237.970,380.638 237.200 C 381.153 236.430,382.208 234.900,382.981 233.800 C 383.755 232.700,384.391 231.507,384.394 231.149 C 384.397 230.791,384.661 230.282,384.980 230.017 C 385.298 229.752,385.771 228.875,386.030 228.068 C 386.289 227.261,386.733 226.330,387.017 226.000 C 387.300 225.670,387.658 224.680,387.811 223.800 C 387.964 222.920,388.354 221.779,388.677 221.265 C 389.000 220.751,389.447 219.131,389.671 217.665 C 389.895 216.199,390.331 214.017,390.639 212.816 C 391.513 209.412,391.380 200.167,390.400 196.200 C 389.965 194.440,389.607 192.583,389.605 192.074 C 389.602 191.565,389.255 190.305,388.833 189.274 C 388.411 188.243,387.947 186.860,387.802 186.200 C 387.657 185.540,387.298 184.730,387.006 184.400 C 386.714 184.070,386.276 183.056,386.034 182.147 C 385.792 181.237,385.326 180.270,384.997 179.998 C 384.669 179.725,384.400 179.318,384.400 179.092 C 384.400 178.867,383.725 177.700,382.900 176.500 C 382.075 175.299,381.212 173.992,380.981 173.595 C 379.734 171.444,371.675 163.279,307.752 99.400 C 236.482 28.179,234.685 26.400,234.024 26.400 C 233.813 26.400,233.488 26.129,233.303 25.798 C 233.117 25.466,231.983 24.576,230.783 23.819 C 229.582 23.063,228.330 22.187,228.000 21.873 C 227.670 21.558,226.950 21.164,226.400 20.996 C 225.850 20.828,224.971 20.355,224.446 19.945 C 223.921 19.535,223.223 19.200,222.893 19.200 C 222.564 19.200,221.733 18.862,221.047 18.449 C 220.361 18.035,219.127 17.578,218.306 17.432 C 217.484 17.285,216.044 16.817,215.106 16.392 C 214.167 15.966,212.770 15.614,212.000 15.609 C 211.230 15.604,209.189 15.330,207.465 15.000 C 203.662 14.272,196.062 14.276,192.200 15.007 M208.566 16.039 C 211.825 16.333,213.784 16.711,214.760 17.235 C 215.546 17.656,216.641 18.006,217.194 18.013 C 217.747 18.019,219.100 18.468,220.200 19.009 C 221.300 19.550,222.493 19.994,222.851 19.996 C 223.209 19.998,223.720 20.263,223.987 20.585 C 224.254 20.906,224.861 21.287,225.336 21.431 C 226.812 21.877,232.583 25.876,235.254 28.302 C 244.580 36.773,380.374 173.170,380.427 174.119 C 380.441 174.383,381.074 175.410,381.832 176.400 C 382.591 177.390,383.492 178.811,383.835 179.558 C 384.179 180.305,384.716 181.173,385.030 181.487 C 385.343 181.801,385.600 182.428,385.600 182.881 C 385.600 183.335,385.945 184.267,386.366 184.953 C 386.788 185.639,387.258 186.920,387.411 187.800 C 387.564 188.680,387.949 189.812,388.265 190.316 C 388.581 190.820,389.015 192.800,389.229 194.716 C 389.443 196.632,389.830 198.830,390.090 199.600 C 390.713 201.451,390.718 208.628,390.097 210.400 C 389.827 211.170,389.448 213.372,389.254 215.293 C 389.060 217.215,388.635 219.195,388.311 219.693 C 387.986 220.192,387.597 221.268,387.445 222.085 C 387.182 223.502,385.579 227.527,384.771 228.800 C 384.561 229.130,384.031 230.120,383.593 231.000 C 382.787 232.618,382.367 233.286,380.200 236.393 C 379.540 237.340,378.820 238.406,378.600 238.762 C 377.735 240.163,370.878 246.696,368.800 248.100 C 367.590 248.917,365.833 250.126,364.895 250.786 C 363.958 251.447,362.756 252.096,362.225 252.230 C 361.693 252.363,360.948 252.816,360.567 253.236 C 360.187 253.656,359.499 254.001,359.038 254.002 C 358.577 254.004,357.660 254.298,357.000 254.657 C 356.340 255.015,354.900 255.543,353.800 255.830 C 352.700 256.116,351.080 256.611,350.200 256.930 C 349.320 257.248,346.440 257.638,343.800 257.796 C 339.160 258.073,336.561 258.706,335.920 259.716 C 335.751 259.982,335.609 278.161,335.606 300.113 C 335.601 334.075,335.513 340.233,335.020 341.415 C 334.700 342.179,334.322 343.928,334.179 345.302 C 334.036 346.676,333.607 348.430,333.225 349.200 C 332.842 349.970,332.408 351.218,332.260 351.974 C 332.112 352.729,331.745 353.629,331.446 353.974 C 331.146 354.318,330.689 355.261,330.430 356.068 C 330.171 356.875,329.698 357.752,329.380 358.017 C 329.061 358.282,328.800 358.823,328.800 359.220 C 328.800 359.618,328.485 360.256,328.100 360.638 C 327.400 361.333,327.138 361.690,325.119 364.708 C 324.525 365.596,322.365 367.973,320.319 369.990 C 315.697 374.547,315.588 374.641,314.553 374.960 C 314.087 375.103,313.384 375.576,312.991 376.010 C 312.598 376.445,312.043 376.800,311.758 376.800 C 311.473 376.800,311.096 377.051,310.920 377.357 C 310.744 377.663,309.970 378.208,309.200 378.568 C 308.430 378.927,307.350 379.484,306.800 379.805 C 306.250 380.126,305.417 380.391,304.949 380.394 C 304.481 380.397,303.884 380.658,303.623 380.972 C 303.362 381.287,302.251 381.737,301.154 381.973 C 300.057 382.208,298.664 382.657,298.057 382.971 C 295.090 384.505,289.359 384.600,200.200 384.600 C 111.250 384.600,104.894 384.496,102.001 383.000 C 101.340 382.659,99.867 382.202,98.728 381.986 C 97.588 381.770,96.359 381.325,95.996 380.997 C 95.634 380.668,94.981 380.400,94.546 380.400 C 94.111 380.400,93.145 379.950,92.400 379.400 C 91.655 378.850,90.730 378.400,90.346 378.400 C 89.962 378.400,89.535 378.219,89.398 377.997 C 89.262 377.776,87.856 376.763,86.275 375.746 C 83.266 373.810,73.200 364.041,73.200 363.056 C 73.200 362.755,72.847 362.059,72.415 361.510 C 71.163 359.918,67.600 352.751,67.600 351.823 C 67.600 351.358,67.311 350.565,66.958 350.061 C 66.605 349.557,66.151 347.821,65.950 346.203 C 65.750 344.586,65.319 342.624,64.993 341.844 C 64.483 340.623,64.400 334.864,64.400 300.489 C 64.400 267.928,64.302 260.419,63.869 259.827 C 63.244 258.972,59.493 258.179,54.200 257.782 C 52.181 257.631,49.857 257.191,48.907 256.782 C 47.976 256.380,46.399 255.929,45.402 255.779 C 44.406 255.630,43.159 255.169,42.632 254.754 C 42.105 254.339,41.321 254.000,40.891 254.000 C 40.460 254.000,39.664 253.651,39.122 253.225 C 38.580 252.798,37.654 252.328,37.065 252.180 C 36.475 252.032,35.893 251.750,35.771 251.553 C 35.649 251.356,34.256 250.358,32.675 249.336 C 29.335 247.176,20.729 238.727,18.888 235.800 C 18.196 234.700,17.376 233.530,17.066 233.200 C 16.755 232.870,16.364 232.150,16.196 231.600 C 16.028 231.050,15.555 230.171,15.145 229.646 C 14.735 229.121,14.400 228.381,14.400 228.000 C 14.400 227.619,14.066 226.879,13.658 226.354 C 13.250 225.829,12.787 224.680,12.628 223.800 C 12.470 222.920,12.058 221.762,11.713 221.226 C 11.367 220.690,10.945 218.866,10.774 217.173 C 10.603 215.480,10.179 213.257,9.832 212.233 C 8.963 209.673,8.947 199.973,9.808 197.437 C 10.143 196.452,10.573 194.399,10.764 192.876 C 10.955 191.353,11.384 189.678,11.717 189.153 C 12.049 188.629,12.452 187.570,12.611 186.800 C 12.770 186.030,13.223 184.770,13.617 184.000 C 14.011 183.230,14.532 182.150,14.775 181.600 C 15.017 181.050,15.650 179.880,16.181 179.000 C 16.712 178.120,17.501 176.770,17.935 176.000 C 19.799 172.686,27.629 164.688,92.958 99.364 C 158.359 33.969,166.362 26.093,168.634 24.887 C 169.165 24.605,169.600 24.200,169.600 23.987 C 169.600 23.774,169.856 23.600,170.169 23.600 C 170.482 23.600,171.273 23.150,171.927 22.600 C 172.581 22.050,173.380 21.600,173.704 21.600 C 174.027 21.600,174.728 21.257,175.260 20.839 C 175.793 20.420,176.942 19.877,177.814 19.632 C 178.686 19.387,179.749 18.920,180.176 18.594 C 180.604 18.267,181.468 18.000,182.098 18.000 C 182.728 18.000,184.047 17.634,185.029 17.187 C 186.353 16.584,188.287 16.270,192.507 15.973 C 195.638 15.753,198.470 15.500,198.800 15.410 C 199.420 15.242,200.489 15.311,208.566 16.039 M193.400 260.418 C 192.300 260.830,190.849 261.174,190.176 261.183 C 189.504 261.193,188.604 261.467,188.176 261.794 C 187.749 262.120,186.686 262.587,185.814 262.832 C 184.942 263.077,183.793 263.620,183.260 264.039 C 182.728 264.457,182.129 264.800,181.930 264.800 C 180.297 264.800,173.368 271.516,172.232 274.200 C 171.953 274.860,171.426 275.647,171.062 275.949 C 170.698 276.251,170.400 276.853,170.400 277.286 C 170.400 277.719,170.040 278.531,169.600 279.091 C 169.138 279.678,168.798 280.719,168.796 281.554 C 168.793 282.349,168.523 283.884,168.196 284.964 C 166.456 290.698,167.595 327.757,169.632 331.679 C 170.054 332.493,170.401 333.393,170.402 333.679 C 170.405 334.231,173.121 338.290,174.800 340.249 C 176.456 342.182,182.174 346.728,183.308 347.013 C 183.891 347.159,184.573 347.526,184.824 347.829 C 185.075 348.131,185.937 348.496,186.740 348.640 C 187.543 348.784,188.501 349.164,188.869 349.484 C 189.236 349.805,190.856 350.232,192.469 350.435 C 194.081 350.637,196.451 350.993,197.736 351.225 C 199.579 351.559,200.929 351.510,204.136 350.993 C 206.371 350.633,208.767 350.257,209.460 350.159 C 210.153 350.060,210.940 349.714,211.209 349.389 C 211.478 349.065,212.081 348.797,212.549 348.794 C 213.017 348.791,213.850 348.526,214.400 348.205 C 214.950 347.884,216.003 347.336,216.741 346.988 C 217.478 346.640,218.288 346.190,218.541 345.988 C 222.579 342.758,224.373 341.211,225.200 340.247 C 226.873 338.297,229.595 334.232,229.598 333.679 C 229.599 333.393,229.946 332.493,230.369 331.679 C 232.755 327.087,232.726 282.354,230.334 279.246 C 229.930 278.721,229.600 277.991,229.600 277.624 C 229.600 277.256,229.150 276.345,228.600 275.600 C 228.050 274.855,227.600 274.015,227.600 273.735 C 227.600 272.225,216.240 262.800,214.419 262.800 C 214.148 262.800,213.469 262.440,212.909 262.000 C 212.331 261.545,211.269 261.194,210.446 261.186 C 209.651 261.179,208.280 260.825,207.400 260.400 C 205.127 259.302,196.351 259.313,193.400 260.418 M208.000 261.360 C 210.742 261.982,213.678 263.073,215.200 264.036 C 215.530 264.245,216.363 264.676,217.051 264.993 C 217.740 265.311,218.409 265.847,218.539 266.185 C 218.669 266.523,219.046 266.800,219.377 266.800 C 220.121 266.800,227.200 273.819,227.200 274.557 C 227.200 274.851,227.535 275.521,227.945 276.046 C 228.355 276.571,228.821 277.450,228.982 278.000 C 229.143 278.550,229.657 279.810,230.125 280.800 C 231.805 284.352,231.590 328.129,229.879 330.866 C 229.558 331.380,229.173 332.326,229.023 332.968 C 228.873 333.611,228.402 334.580,227.975 335.122 C 227.549 335.664,227.200 336.288,227.200 336.508 C 227.200 336.728,226.795 337.300,226.300 337.779 C 225.805 338.258,224.853 339.269,224.185 340.025 C 222.813 341.578,219.921 344.165,219.126 344.549 C 218.837 344.689,217.700 345.342,216.600 346.000 C 205.139 352.859,188.311 351.441,178.622 342.800 C 175.788 340.272,172.800 337.038,172.800 336.498 C 172.800 336.283,172.465 335.679,172.055 335.154 C 171.645 334.629,171.179 333.750,171.018 333.200 C 170.857 332.650,170.338 331.390,169.863 330.400 C 169.010 328.620,169.000 328.341,169.000 305.400 L 169.000 282.200 170.100 279.961 C 170.705 278.730,171.200 277.420,171.200 277.049 C 171.200 276.678,171.463 276.274,171.785 276.150 C 172.106 276.027,172.491 275.538,172.640 275.063 C 173.744 271.534,183.970 263.209,187.211 263.202 C 187.547 263.201,188.200 262.935,188.663 262.611 C 189.125 262.287,190.823 261.818,192.435 261.567 C 194.048 261.317,195.734 260.956,196.183 260.764 C 197.429 260.232,204.628 260.595,208.000 261.360 " stroke="none" fill="#646464" fill-rule="evenodd"></path><path id="path3" d="M198.400 15.450 C 197.850 15.545,195.420 15.768,193.000 15.945 C 189.468 16.203,190.771 16.263,199.600 16.252 C 206.045 16.243,209.358 16.128,207.600 15.973 C 200.606 15.356,199.349 15.284,198.400 15.450 M185.000 17.200 C 184.120 17.625,182.855 17.979,182.189 17.986 C 181.523 17.994,180.566 18.289,180.061 18.642 C 179.557 18.995,178.662 19.430,178.072 19.608 L 177.000 19.931 178.046 19.966 C 178.621 19.985,179.550 19.640,180.109 19.200 C 180.669 18.760,181.638 18.399,182.263 18.398 C 183.797 18.395,186.400 17.647,186.400 17.209 C 186.400 17.015,186.805 16.778,187.300 16.682 C 188.070 16.534,188.085 16.503,187.400 16.468 C 186.960 16.446,185.880 16.775,185.000 17.200 M212.400 16.684 C 212.730 16.805,213.283 17.150,213.629 17.450 C 213.975 17.750,215.145 18.113,216.229 18.256 C 217.313 18.400,218.678 18.850,219.262 19.258 C 219.846 19.666,220.746 19.998,221.262 19.996 C 221.962 19.994,221.692 19.743,220.200 19.009 C 219.100 18.468,217.747 18.019,217.194 18.013 C 216.641 18.006,215.516 17.640,214.696 17.200 C 213.875 16.760,212.887 16.414,212.501 16.432 C 211.947 16.457,211.926 16.509,212.400 16.684 M175.256 20.813 C 174.736 21.246,174.042 21.600,173.713 21.600 C 173.385 21.600,172.581 22.050,171.927 22.600 C 171.273 23.150,170.482 23.600,170.169 23.600 C 169.856 23.600,169.600 23.774,169.600 23.987 C 169.600 24.200,169.165 24.605,168.634 24.887 C 166.362 26.093,158.359 33.969,92.958 99.364 C 27.629 164.688,19.799 172.686,17.935 176.000 C 17.501 176.770,16.712 178.120,16.181 179.000 C 15.650 179.880,15.015 181.050,14.769 181.600 C 14.523 182.150,13.942 183.358,13.478 184.284 C 13.014 185.210,12.762 186.095,12.917 186.251 C 13.073 186.406,13.200 186.307,13.200 186.030 C 13.200 185.753,13.560 185.069,14.000 184.509 C 14.440 183.950,14.800 183.106,14.800 182.635 C 14.800 182.164,15.160 181.470,15.600 181.093 C 16.040 180.716,16.400 180.072,16.400 179.662 C 16.400 179.252,16.850 178.431,17.400 177.838 C 17.950 177.244,18.400 176.526,18.400 176.241 C 18.400 175.957,18.760 175.398,19.200 175.000 C 19.640 174.602,20.000 174.111,20.000 173.910 C 20.000 172.737,167.841 25.200,169.016 25.200 C 169.269 25.200,169.802 24.840,170.200 24.400 C 170.598 23.960,171.156 23.600,171.439 23.600 C 171.723 23.600,172.190 23.267,172.477 22.861 C 172.765 22.454,173.632 22.004,174.404 21.861 C 175.176 21.717,176.032 21.240,176.307 20.800 C 176.939 19.789,176.478 19.795,175.256 20.813 M223.600 21.000 C 224.345 21.550,225.325 21.993,225.778 21.984 C 226.410 21.972,226.310 21.843,225.348 21.424 C 224.659 21.124,223.974 20.681,223.824 20.440 C 223.675 20.198,223.258 20.000,222.899 20.000 C 222.480 20.000,222.733 20.360,223.600 21.000 M226.896 22.500 C 226.986 22.775,227.541 23.235,228.130 23.522 C 228.718 23.809,229.200 24.192,229.200 24.373 C 229.200 24.555,229.785 24.941,230.500 25.231 C 231.215 25.522,232.035 26.084,232.323 26.480 C 232.610 26.876,233.012 27.200,233.216 27.200 C 233.745 27.200,378.400 171.737,378.400 172.267 C 378.400 172.509,378.760 172.801,379.200 172.916 C 379.792 173.071,379.560 172.638,378.315 171.263 C 375.786 168.469,238.198 30.977,235.268 28.315 C 232.450 25.755,226.643 21.722,226.896 22.500 M380.025 174.242 C 380.003 174.995,380.400 175.592,382.602 178.113 C 382.945 178.504,383.333 179.366,383.465 180.027 C 383.598 180.688,384.042 181.408,384.453 181.628 C 384.912 181.874,385.200 182.464,385.200 183.160 C 385.200 183.783,385.561 184.752,386.003 185.313 C 386.445 185.875,386.918 187.204,387.055 188.267 C 387.191 189.330,387.617 190.740,388.001 191.400 C 388.468 192.204,388.777 193.880,388.937 196.485 C 389.069 198.621,389.452 201.028,389.788 201.834 C 390.572 203.708,390.569 206.298,389.781 208.183 C 389.438 209.005,389.064 211.473,388.941 213.732 C 388.782 216.663,388.526 218.079,388.026 218.800 C 387.644 219.350,387.213 220.670,387.069 221.733 C 386.924 222.796,386.445 224.125,386.003 224.687 C 385.561 225.248,385.200 226.109,385.200 226.600 C 385.200 227.091,384.878 227.921,384.484 228.446 C 384.090 228.971,383.547 229.850,383.276 230.400 C 382.571 231.833,381.227 234.008,379.500 236.510 C 378.675 237.705,378.000 238.889,378.000 239.141 C 378.000 239.394,377.713 239.600,377.363 239.600 C 377.012 239.600,376.633 239.954,376.519 240.387 C 376.406 240.819,375.982 241.279,375.577 241.407 C 375.172 241.536,374.730 241.992,374.594 242.420 C 374.457 242.849,374.100 243.200,373.800 243.200 C 373.500 243.200,373.140 243.560,373.000 244.000 C 372.860 244.440,372.471 244.800,372.136 244.800 C 371.800 244.800,371.430 245.162,371.315 245.604 C 371.199 246.047,370.689 246.513,370.182 246.640 C 369.674 246.768,368.948 247.216,368.567 247.636 C 368.187 248.056,367.635 248.400,367.341 248.400 C 367.047 248.400,366.582 248.760,366.307 249.200 C 366.032 249.640,365.616 250.000,365.381 250.000 C 365.147 250.000,364.345 250.450,363.600 251.000 C 362.855 251.550,361.921 252.000,361.526 252.000 C 361.130 252.000,360.582 252.360,360.307 252.800 C 360.032 253.240,359.413 253.600,358.930 253.600 C 357.769 253.600,356.085 254.258,355.341 255.002 C 354.532 255.811,354.915 255.754,356.696 254.800 C 357.516 254.360,358.568 254.000,359.032 254.000 C 359.496 254.000,360.187 253.656,360.567 253.236 C 360.948 252.816,361.693 252.363,362.225 252.230 C 362.756 252.096,363.958 251.447,364.895 250.786 C 365.833 250.126,367.590 248.917,368.800 248.100 C 370.878 246.696,377.735 240.163,378.600 238.762 C 378.820 238.406,379.540 237.340,380.200 236.393 C 382.367 233.286,382.787 232.618,383.593 231.000 C 384.031 230.120,384.561 229.130,384.771 228.800 C 385.579 227.527,387.182 223.502,387.445 222.085 C 387.597 221.268,387.986 220.192,388.311 219.693 C 388.635 219.195,389.060 217.215,389.254 215.293 C 389.448 213.372,389.827 211.170,390.097 210.400 C 390.718 208.628,390.713 201.451,390.090 199.600 C 389.830 198.830,389.443 196.632,389.229 194.716 C 389.015 192.800,388.581 190.820,388.265 190.316 C 387.949 189.812,387.564 188.680,387.411 187.800 C 387.258 186.920,386.788 185.639,386.366 184.953 C 385.945 184.267,385.600 183.335,385.600 182.881 C 385.600 182.428,385.343 181.801,385.030 181.487 C 384.716 181.173,384.175 180.305,383.828 179.558 C 383.481 178.811,382.652 177.480,381.985 176.600 C 381.318 175.720,380.610 174.640,380.412 174.200 C 380.057 173.415,380.050 173.416,380.025 174.242 M12.460 187.411 C 12.427 187.857,12.112 188.634,11.759 189.137 C 11.407 189.640,10.961 191.310,10.767 192.849 C 10.574 194.387,10.143 196.452,9.808 197.437 C 8.936 200.006,8.963 209.674,9.850 212.285 C 10.207 213.337,10.646 215.459,10.826 216.999 C 11.150 219.778,11.152 219.771,11.027 216.107 C 10.940 213.544,10.702 212.110,10.251 211.421 C 9.304 209.977,9.301 199.628,10.246 198.185 C 10.635 197.592,10.997 195.858,11.154 193.833 C 11.342 191.424,11.622 190.239,12.138 189.668 C 12.600 189.158,12.799 188.462,12.690 187.735 C 12.585 187.036,12.497 186.912,12.460 187.411 M11.200 220.314 C 11.200 220.556,11.377 220.862,11.594 220.996 C 11.810 221.130,12.154 221.816,12.358 222.520 L 12.728 223.800 12.764 222.562 C 12.786 221.797,12.495 221.048,12.000 220.600 C 11.560 220.202,11.200 220.073,11.200 220.314 M12.846 224.537 C 12.821 224.942,13.160 225.731,13.600 226.291 C 14.040 226.850,14.400 227.619,14.400 228.000 C 14.400 228.381,14.733 229.121,15.140 229.646 C 15.547 230.171,15.983 230.870,16.109 231.200 C 16.269 231.621,16.346 231.550,16.368 230.962 C 16.386 230.501,16.040 229.798,15.600 229.400 C 15.160 229.002,14.800 228.254,14.800 227.738 C 14.800 227.222,14.456 226.456,14.036 226.036 C 13.616 225.616,13.187 224.941,13.083 224.536 C 12.898 223.822,12.891 223.822,12.846 224.537 M16.400 232.308 C 16.400 232.481,16.715 232.912,17.100 233.267 C 17.485 233.622,18.247 234.661,18.793 235.576 C 19.340 236.492,19.854 237.039,19.936 236.792 C 20.018 236.545,19.727 235.951,19.289 235.471 C 18.851 234.992,18.383 234.240,18.250 233.799 C 18.011 233.004,16.400 231.706,16.400 232.308 M24.830 242.538 C 27.563 245.255,31.094 248.313,32.675 249.336 C 34.256 250.358,35.649 251.356,35.771 251.553 C 35.893 251.750,36.489 252.035,37.096 252.187 C 37.703 252.338,38.515 252.746,38.900 253.093 C 39.285 253.440,39.600 253.552,39.600 253.342 C 39.600 252.775,38.720 252.000,38.076 252.000 C 37.406 252.000,33.600 249.595,33.600 249.172 C 33.600 249.010,33.074 248.695,32.432 248.471 C 31.790 248.247,30.935 247.771,30.532 247.412 C 29.394 246.400,21.862 238.912,21.284 238.219 C 21.001 237.878,20.564 237.600,20.314 237.600 C 20.064 237.600,22.096 239.822,24.830 242.538 M40.787 253.894 C 41.329 253.995,42.209 254.421,42.741 254.839 C 43.273 255.258,44.089 255.597,44.554 255.594 C 45.346 255.589,45.336 255.551,44.400 255.011 C 42.614 253.981,41.565 253.599,40.674 253.654 C 39.890 253.703,39.901 253.728,40.787 253.894 M46.600 255.971 C 47.260 256.131,48.193 256.472,48.674 256.731 C 50.006 257.447,50.312 257.266,49.256 256.387 C 48.666 255.895,47.765 255.615,46.856 255.641 L 45.400 255.682 46.600 255.971 M350.265 256.247 C 348.655 257.120,349.293 257.453,351.096 256.681 C 351.923 256.327,352.960 255.960,353.400 255.865 C 353.840 255.770,353.570 255.679,352.800 255.662 C 352.030 255.646,350.889 255.909,350.265 256.247 M53.400 257.600 C 60.244 258.363,62.904 258.904,63.694 259.694 C 64.428 260.428,64.465 260.430,64.336 259.736 C 64.066 258.276,61.760 257.656,55.800 257.443 C 51.144 257.277,50.740 257.303,53.400 257.600 M339.716 257.565 C 336.899 257.795,335.641 258.481,335.619 259.800 C 335.615 260.029,335.738 260.012,335.906 259.760 C 336.605 258.713,338.535 258.215,343.600 257.775 C 348.137 257.381,348.489 257.308,345.800 257.317 C 344.040 257.324,341.302 257.435,339.716 257.565 M193.000 259.890 C 192.340 260.251,190.815 260.684,189.611 260.851 C 188.407 261.018,187.237 261.407,187.011 261.715 C 186.785 262.023,185.950 262.397,185.155 262.545 C 184.360 262.694,183.387 263.172,182.993 263.608 C 182.599 264.044,181.959 264.400,181.572 264.400 C 180.904 264.400,179.829 265.151,177.788 267.042 C 177.289 267.505,176.592 267.994,176.240 268.129 C 175.888 268.264,175.600 268.575,175.600 268.819 C 175.600 269.063,174.790 270.073,173.800 271.063 C 172.810 272.053,172.000 273.138,172.000 273.474 C 172.000 273.810,171.550 274.619,171.000 275.273 C 170.450 275.927,170.000 276.808,170.000 277.231 C 170.000 277.654,169.640 278.360,169.200 278.800 C 168.584 279.416,168.413 280.083,168.456 281.700 L 168.513 283.800 168.764 281.733 C 168.903 280.596,169.327 279.322,169.708 278.902 C 170.089 278.481,170.400 277.768,170.400 277.317 C 170.400 276.867,170.698 276.251,171.062 275.949 C 171.426 275.647,171.953 274.860,172.232 274.200 C 173.368 271.516,180.297 264.800,181.930 264.800 C 182.129 264.800,182.728 264.457,183.260 264.039 C 183.793 263.620,184.942 263.077,185.814 262.832 C 186.686 262.587,187.749 262.120,188.176 261.794 C 188.604 261.467,189.463 261.200,190.086 261.200 C 190.710 261.200,192.244 260.840,193.496 260.400 C 196.425 259.371,205.106 259.243,206.946 260.202 C 208.476 261.001,208.665 260.956,207.800 260.000 C 206.802 258.898,194.971 258.809,193.000 259.890 M335.298 299.914 C 335.213 334.400,335.121 339.748,334.601 340.542 C 334.271 341.045,333.884 342.884,333.741 344.628 C 333.562 346.789,333.243 348.104,332.740 348.754 C 332.305 349.315,332.017 350.304,332.041 351.154 L 332.082 352.600 332.390 351.302 C 332.559 350.589,332.914 349.744,333.179 349.426 C 333.443 349.107,333.835 347.531,334.050 345.923 C 334.265 344.316,334.706 342.280,335.029 341.400 C 335.535 340.025,335.602 334.212,335.507 300.000 L 335.396 260.200 335.298 299.914 M210.475 261.169 C 211.507 261.313,212.691 261.739,213.107 262.116 C 213.523 262.492,214.099 262.800,214.387 262.800 C 216.259 262.800,226.657 271.386,227.587 273.699 L 227.949 274.600 227.975 273.717 C 228.002 272.756,221.585 266.000,220.645 266.000 C 220.358 266.000,219.798 265.640,219.400 265.200 C 219.002 264.760,218.440 264.400,218.152 264.400 C 217.864 264.400,217.447 264.061,217.225 263.647 C 217.003 263.232,216.177 262.772,215.389 262.624 C 214.600 262.476,213.605 262.005,213.178 261.578 C 212.605 261.005,211.899 260.814,210.500 260.853 L 208.600 260.907 210.475 261.169 M228.773 275.856 C 229.228 276.435,229.600 277.219,229.600 277.600 C 229.600 277.981,229.948 278.735,230.374 279.276 C 230.799 279.816,231.218 281.056,231.304 282.029 L 231.460 283.800 231.530 281.696 C 231.585 280.031,231.433 279.449,230.800 278.907 C 230.360 278.530,230.000 277.890,230.000 277.485 C 230.000 276.465,229.347 275.342,228.584 275.049 C 228.094 274.861,228.138 275.049,228.773 275.856 M167.557 284.651 C 166.525 285.894,166.571 324.122,167.607 326.200 C 168.297 327.584,168.368 327.638,168.137 326.600 C 167.675 324.522,167.524 287.340,167.971 285.720 C 168.445 284.004,168.333 283.716,167.557 284.651 M231.800 305.221 C 231.800 321.542,231.902 325.744,232.287 325.239 C 232.992 324.315,232.998 288.003,232.294 285.982 C 231.890 284.822,231.800 288.330,231.800 305.221 M231.197 328.900 C 231.196 329.923,230.878 331.078,230.400 331.800 C 229.963 332.460,229.603 333.270,229.600 333.600 C 229.587 335.135,225.131 340.659,221.600 343.516 C 220.170 344.674,218.777 345.801,218.505 346.021 C 218.233 346.242,217.603 346.586,217.105 346.786 L 216.200 347.149 217.084 347.175 C 217.571 347.189,218.291 346.879,218.684 346.486 C 219.078 346.094,220.121 345.289,221.003 344.699 C 223.701 342.893,228.000 338.313,228.000 337.246 C 228.000 337.026,228.359 336.594,228.797 336.287 C 229.236 335.980,229.711 335.115,229.855 334.364 C 229.998 333.614,230.449 332.678,230.858 332.284 C 231.541 331.626,232.013 327.200,231.400 327.200 C 231.290 327.200,231.199 327.965,231.197 328.900 M168.450 329.700 C 168.414 331.062,168.609 331.809,169.138 332.338 C 169.543 332.743,169.994 333.672,170.140 334.402 C 170.286 335.132,170.764 335.980,171.203 336.287 C 171.641 336.594,172.000 337.026,172.000 337.246 C 172.000 338.073,176.893 343.600,177.625 343.600 C 177.886 343.600,179.518 344.952,181.014 346.408 C 181.462 346.844,182.113 347.200,182.460 347.200 C 182.808 347.200,183.550 347.560,184.109 348.000 C 184.669 348.440,185.458 348.786,185.863 348.768 C 186.424 348.744,186.457 348.684,186.000 348.516 C 185.670 348.395,185.130 348.070,184.800 347.795 C 184.470 347.520,183.750 347.159,183.200 346.993 C 182.080 346.656,176.341 342.049,174.800 340.249 C 173.008 338.158,170.405 334.215,170.402 333.589 C 170.401 333.253,170.092 332.538,169.715 332.000 C 169.338 331.462,168.911 330.297,168.765 329.411 L 168.500 327.800 168.450 329.700 M64.474 338.113 C 64.432 339.420,64.658 341.042,64.993 341.844 C 65.319 342.624,65.752 344.605,65.956 346.246 C 66.159 347.887,66.546 349.494,66.814 349.817 C 67.082 350.140,67.441 350.989,67.610 351.702 L 67.918 353.000 67.959 351.554 C 67.983 350.704,67.695 349.715,67.260 349.154 C 66.757 348.504,66.438 347.189,66.259 345.028 C 66.116 343.284,65.739 341.461,65.422 340.977 C 65.105 340.493,64.778 339.130,64.697 337.949 L 64.548 335.800 64.474 338.113 M215.383 347.628 C 215.237 347.863,214.732 348.212,214.259 348.403 L 213.400 348.749 214.286 348.775 C 214.781 348.789,215.361 348.447,215.600 348.000 C 216.040 347.177,215.856 346.862,215.383 347.628 M187.600 349.389 C 189.531 350.503,190.466 350.800,192.039 350.800 C 192.912 350.800,194.295 351.090,195.113 351.445 C 197.159 352.333,202.887 352.340,204.887 351.457 C 205.705 351.095,207.256 350.800,208.333 350.800 C 209.629 350.800,210.615 350.549,211.246 350.060 C 211.771 349.653,212.470 349.217,212.800 349.091 C 213.247 348.921,213.204 348.855,212.631 348.832 C 212.209 348.814,211.548 349.085,211.163 349.433 C 210.769 349.790,209.182 350.226,207.531 350.431 C 205.919 350.631,203.652 350.989,202.494 351.227 C 200.835 351.567,199.476 351.520,196.094 351.005 C 193.732 350.645,191.233 350.267,190.540 350.165 C 189.847 350.062,189.060 349.714,188.791 349.389 C 188.522 349.065,187.919 348.803,187.451 348.806 C 186.651 348.811,186.659 348.846,187.600 349.389 M331.132 353.555 C 330.764 353.913,330.334 354.745,330.176 355.403 C 330.017 356.061,329.553 356.922,329.144 357.316 C 328.735 357.709,328.400 358.465,328.400 358.996 C 328.400 359.526,328.142 360.105,327.827 360.281 C 327.075 360.702,325.327 363.110,324.766 364.500 C 324.522 365.105,324.155 365.600,323.952 365.600 C 323.749 365.600,323.378 366.050,323.127 366.600 C 322.877 367.150,322.443 367.600,322.163 367.600 C 321.883 367.600,321.543 367.951,321.406 368.380 C 321.270 368.808,320.828 369.264,320.423 369.393 C 320.018 369.521,319.594 369.981,319.481 370.413 C 319.367 370.846,319.000 371.200,318.664 371.200 C 318.329 371.200,317.940 371.560,317.800 372.000 C 317.660 372.440,317.310 372.800,317.022 372.800 C 316.734 372.800,316.265 373.080,315.981 373.423 C 315.696 373.766,314.864 374.297,314.132 374.603 C 313.399 374.909,312.800 375.358,312.800 375.600 C 312.800 375.843,312.274 376.225,311.632 376.449 C 310.990 376.673,310.365 377.113,310.245 377.428 C 310.124 377.743,309.669 378.000,309.233 378.000 C 308.798 378.000,307.956 378.450,307.362 379.000 C 306.769 379.550,306.467 380.000,306.693 380.000 C 306.918 380.000,307.318 379.739,307.583 379.420 C 307.848 379.102,308.664 378.643,309.397 378.401 C 310.130 378.159,310.830 377.700,310.952 377.381 C 311.075 377.061,311.423 376.800,311.725 376.800 C 312.028 376.800,312.598 376.445,312.991 376.010 C 313.384 375.576,314.087 375.103,314.553 374.960 C 315.588 374.641,315.697 374.547,320.319 369.990 C 322.365 367.973,324.525 365.596,325.119 364.708 C 327.138 361.690,327.400 361.333,328.100 360.638 C 328.485 360.256,328.800 359.618,328.800 359.220 C 328.800 358.823,329.061 358.282,329.380 358.017 C 329.698 357.752,330.171 356.875,330.430 356.068 C 330.689 355.261,331.177 354.284,331.515 353.898 C 332.312 352.985,332.001 352.707,331.132 353.555 M68.000 353.306 C 68.000 353.938,71.406 359.981,71.539 359.584 C 71.623 359.330,71.334 358.637,70.897 358.045 C 70.459 357.453,69.978 356.409,69.828 355.726 C 69.601 354.692,68.000 352.573,68.000 353.306 M72.331 361.403 C 72.809 362.011,73.200 362.755,73.200 363.056 C 73.200 364.041,83.266 373.810,86.275 375.746 C 87.856 376.763,89.262 377.776,89.398 377.997 C 89.535 378.219,89.972 378.400,90.370 378.400 C 90.767 378.400,91.589 378.791,92.197 379.269 C 93.272 380.115,93.290 380.116,92.862 379.316 C 92.391 378.437,91.578 378.000,90.410 378.000 C 90.012 378.000,89.581 377.727,89.453 377.394 C 89.325 377.061,88.766 376.615,88.210 376.404 C 87.655 376.193,87.200 375.855,87.200 375.653 C 87.200 375.452,86.503 375.008,85.652 374.667 C 84.801 374.327,83.996 373.767,83.865 373.424 C 83.733 373.081,83.451 372.800,83.238 372.800 C 82.755 372.800,75.200 365.278,75.200 364.797 C 75.200 364.604,74.869 364.210,74.465 363.923 C 74.060 363.635,73.608 362.910,73.460 362.312 C 73.312 361.713,72.802 361.015,72.326 360.760 L 71.461 360.298 72.331 361.403 M94.400 380.291 C 94.950 380.391,95.683 380.725,96.028 381.033 C 96.373 381.341,97.588 381.770,98.728 381.986 C 99.867 382.202,101.352 382.665,102.027 383.014 C 102.702 383.363,103.557 383.568,103.927 383.471 C 104.401 383.345,104.334 383.279,103.700 383.246 C 103.205 383.221,102.800 383.028,102.800 382.819 C 102.800 382.386,100.275 381.606,98.863 381.602 C 98.348 381.601,97.469 381.240,96.909 380.800 C 96.329 380.343,95.357 380.023,94.646 380.054 C 93.555 380.102,93.524 380.132,94.400 380.291 M302.754 380.744 C 302.229 381.153,300.947 381.614,299.905 381.768 C 298.862 381.922,297.770 382.287,297.476 382.581 C 297.183 382.874,296.596 383.202,296.172 383.310 C 295.485 383.486,295.479 383.512,296.120 383.554 C 296.516 383.579,297.352 383.335,297.979 383.011 C 298.606 382.687,299.989 382.227,301.053 381.988 C 302.117 381.750,303.260 381.311,303.594 381.014 C 303.927 380.716,304.650 380.391,305.200 380.291 C 306.076 380.132,306.045 380.102,304.954 380.054 C 304.269 380.025,303.279 380.335,302.754 380.744 M109.200 384.187 C 114.915 384.713,284.844 384.718,290.200 384.193 C 292.920 383.926,263.938 383.800,199.600 383.800 C 136.079 383.800,106.380 383.927,109.200 384.187 " stroke="none" fill="#4c4c4c" fill-rule="evenodd"></path></g></svg>